<mxfile host="app.diagrams.net" agent="Mozilla/5.0 (Windows NT 10.0; Win64; x64) AppleWebKit/537.36 (KHTML, like Gecko) Chrome/136.0.0.0 Safari/537.36 Edg/136.0.0.0" version="27.0.5">
  <diagram name="Page-1" id="4M0HLMkVx2-1jQ_FiuzL">
    <mxGraphModel dx="1096" dy="668" grid="1" gridSize="10" guides="1" tooltips="1" connect="1" arrows="1" fold="1" page="1" pageScale="1" pageWidth="850" pageHeight="1100" math="0" shadow="0">
      <root>
        <mxCell id="0" />
        <mxCell id="1" parent="0" />
        <mxCell id="mwFPS20yaUYLlUCTBhqB-4" style="edgeStyle=orthogonalEdgeStyle;rounded=0;orthogonalLoop=1;jettySize=auto;html=1;exitX=0.5;exitY=1;exitDx=0;exitDy=0;entryX=0.5;entryY=0;entryDx=0;entryDy=0;" edge="1" parent="1" source="mwFPS20yaUYLlUCTBhqB-1" target="mwFPS20yaUYLlUCTBhqB-3">
          <mxGeometry relative="1" as="geometry" />
        </mxCell>
        <mxCell id="mwFPS20yaUYLlUCTBhqB-37" style="edgeStyle=orthogonalEdgeStyle;rounded=0;orthogonalLoop=1;jettySize=auto;html=1;exitX=1;exitY=0.5;exitDx=0;exitDy=0;entryX=0;entryY=0.5;entryDx=0;entryDy=0;" edge="1" parent="1" source="mwFPS20yaUYLlUCTBhqB-1" target="mwFPS20yaUYLlUCTBhqB-36">
          <mxGeometry relative="1" as="geometry" />
        </mxCell>
        <mxCell id="mwFPS20yaUYLlUCTBhqB-1" value="Loop Repeat offensive plays" style="rounded=0;whiteSpace=wrap;html=1;" vertex="1" parent="1">
          <mxGeometry x="250" y="160" width="120" height="60" as="geometry" />
        </mxCell>
        <mxCell id="mwFPS20yaUYLlUCTBhqB-6" style="edgeStyle=orthogonalEdgeStyle;rounded=0;orthogonalLoop=1;jettySize=auto;html=1;exitX=1;exitY=0.5;exitDx=0;exitDy=0;" edge="1" parent="1" source="mwFPS20yaUYLlUCTBhqB-3">
          <mxGeometry relative="1" as="geometry">
            <mxPoint x="620" y="330" as="targetPoint" />
            <mxPoint x="520" y="330" as="sourcePoint" />
          </mxGeometry>
        </mxCell>
        <mxCell id="mwFPS20yaUYLlUCTBhqB-11" style="edgeStyle=orthogonalEdgeStyle;rounded=0;orthogonalLoop=1;jettySize=auto;html=1;exitX=0.5;exitY=1;exitDx=0;exitDy=0;entryX=0.5;entryY=0;entryDx=0;entryDy=0;" edge="1" parent="1" source="mwFPS20yaUYLlUCTBhqB-3" target="mwFPS20yaUYLlUCTBhqB-10">
          <mxGeometry relative="1" as="geometry" />
        </mxCell>
        <mxCell id="mwFPS20yaUYLlUCTBhqB-3" value="Under 50 yards from td?" style="rhombus;whiteSpace=wrap;html=1;" vertex="1" parent="1">
          <mxGeometry x="230" y="290" width="160" height="80" as="geometry" />
        </mxCell>
        <mxCell id="mwFPS20yaUYLlUCTBhqB-5" value="4th Down" style="text;html=1;align=center;verticalAlign=middle;resizable=0;points=[];autosize=1;strokeColor=none;fillColor=none;" vertex="1" parent="1">
          <mxGeometry x="310" y="238" width="70" height="30" as="geometry" />
        </mxCell>
        <mxCell id="mwFPS20yaUYLlUCTBhqB-18" style="edgeStyle=orthogonalEdgeStyle;rounded=0;orthogonalLoop=1;jettySize=auto;html=1;exitX=0.5;exitY=0;exitDx=0;exitDy=0;" edge="1" parent="1" source="mwFPS20yaUYLlUCTBhqB-8">
          <mxGeometry relative="1" as="geometry">
            <mxPoint x="680" y="210" as="targetPoint" />
          </mxGeometry>
        </mxCell>
        <mxCell id="mwFPS20yaUYLlUCTBhqB-27" style="edgeStyle=orthogonalEdgeStyle;rounded=0;orthogonalLoop=1;jettySize=auto;html=1;exitX=0.5;exitY=1;exitDx=0;exitDy=0;entryX=1;entryY=0.5;entryDx=0;entryDy=0;" edge="1" parent="1" source="mwFPS20yaUYLlUCTBhqB-8" target="mwFPS20yaUYLlUCTBhqB-16">
          <mxGeometry relative="1" as="geometry" />
        </mxCell>
        <mxCell id="mwFPS20yaUYLlUCTBhqB-8" value="Field Goal Attempt" style="rounded=0;whiteSpace=wrap;html=1;" vertex="1" parent="1">
          <mxGeometry x="620" y="300" width="120" height="60" as="geometry" />
        </mxCell>
        <mxCell id="mwFPS20yaUYLlUCTBhqB-9" value="Yes" style="text;html=1;align=center;verticalAlign=middle;resizable=0;points=[];autosize=1;strokeColor=none;fillColor=none;" vertex="1" parent="1">
          <mxGeometry x="385" y="300" width="40" height="30" as="geometry" />
        </mxCell>
        <mxCell id="mwFPS20yaUYLlUCTBhqB-15" style="edgeStyle=orthogonalEdgeStyle;rounded=0;orthogonalLoop=1;jettySize=auto;html=1;exitX=0.5;exitY=1;exitDx=0;exitDy=0;entryX=0.5;entryY=0;entryDx=0;entryDy=0;" edge="1" parent="1" source="mwFPS20yaUYLlUCTBhqB-10" target="mwFPS20yaUYLlUCTBhqB-14">
          <mxGeometry relative="1" as="geometry" />
        </mxCell>
        <mxCell id="mwFPS20yaUYLlUCTBhqB-10" value="Punt" style="rounded=0;whiteSpace=wrap;html=1;" vertex="1" parent="1">
          <mxGeometry x="250" y="410" width="120" height="60" as="geometry" />
        </mxCell>
        <mxCell id="mwFPS20yaUYLlUCTBhqB-13" style="edgeStyle=orthogonalEdgeStyle;rounded=0;orthogonalLoop=1;jettySize=auto;html=1;entryX=0.5;entryY=0;entryDx=0;entryDy=0;" edge="1" parent="1" source="mwFPS20yaUYLlUCTBhqB-12" target="mwFPS20yaUYLlUCTBhqB-1">
          <mxGeometry relative="1" as="geometry" />
        </mxCell>
        <mxCell id="mwFPS20yaUYLlUCTBhqB-24" style="edgeStyle=orthogonalEdgeStyle;rounded=0;orthogonalLoop=1;jettySize=auto;html=1;exitX=0.5;exitY=0;exitDx=0;exitDy=0;entryX=0;entryY=0.5;entryDx=0;entryDy=0;" edge="1" parent="1" source="mwFPS20yaUYLlUCTBhqB-12" target="mwFPS20yaUYLlUCTBhqB-12">
          <mxGeometry relative="1" as="geometry">
            <mxPoint x="150" y="70" as="targetPoint" />
            <Array as="points">
              <mxPoint x="310" y="30" />
              <mxPoint x="120" y="30" />
              <mxPoint x="120" y="71" />
            </Array>
          </mxGeometry>
        </mxCell>
        <mxCell id="mwFPS20yaUYLlUCTBhqB-12" value="Kickoff &amp;gt;&amp;gt; Kick Return (Change Possession)" style="rounded=0;whiteSpace=wrap;html=1;" vertex="1" parent="1">
          <mxGeometry x="250" y="40" width="120" height="60" as="geometry" />
        </mxCell>
        <mxCell id="mwFPS20yaUYLlUCTBhqB-26" style="edgeStyle=orthogonalEdgeStyle;rounded=0;orthogonalLoop=1;jettySize=auto;html=1;exitX=0.5;exitY=1;exitDx=0;exitDy=0;entryX=0.5;entryY=0;entryDx=0;entryDy=0;" edge="1" parent="1" source="mwFPS20yaUYLlUCTBhqB-14" target="mwFPS20yaUYLlUCTBhqB-16">
          <mxGeometry relative="1" as="geometry" />
        </mxCell>
        <mxCell id="mwFPS20yaUYLlUCTBhqB-14" value="Move ball distance of the punt" style="rounded=0;whiteSpace=wrap;html=1;" vertex="1" parent="1">
          <mxGeometry x="250" y="500" width="120" height="60" as="geometry" />
        </mxCell>
        <mxCell id="mwFPS20yaUYLlUCTBhqB-29" style="edgeStyle=orthogonalEdgeStyle;rounded=0;orthogonalLoop=1;jettySize=auto;html=1;exitX=0;exitY=0.5;exitDx=0;exitDy=0;entryX=0;entryY=0.5;entryDx=0;entryDy=0;" edge="1" parent="1" source="mwFPS20yaUYLlUCTBhqB-16" target="mwFPS20yaUYLlUCTBhqB-1">
          <mxGeometry relative="1" as="geometry">
            <Array as="points">
              <mxPoint x="190" y="630" />
              <mxPoint x="190" y="190" />
            </Array>
          </mxGeometry>
        </mxCell>
        <mxCell id="mwFPS20yaUYLlUCTBhqB-16" value="Change possession" style="rounded=0;whiteSpace=wrap;html=1;" vertex="1" parent="1">
          <mxGeometry x="250" y="600" width="120" height="60" as="geometry" />
        </mxCell>
        <mxCell id="mwFPS20yaUYLlUCTBhqB-19" value="GOOD" style="text;html=1;align=center;verticalAlign=middle;resizable=0;points=[];autosize=1;strokeColor=none;fillColor=none;" vertex="1" parent="1">
          <mxGeometry x="680" y="248" width="60" height="30" as="geometry" />
        </mxCell>
        <mxCell id="mwFPS20yaUYLlUCTBhqB-21" style="edgeStyle=orthogonalEdgeStyle;rounded=0;orthogonalLoop=1;jettySize=auto;html=1;exitX=0.5;exitY=0;exitDx=0;exitDy=0;entryX=1;entryY=0.5;entryDx=0;entryDy=0;" edge="1" parent="1" source="mwFPS20yaUYLlUCTBhqB-20" target="mwFPS20yaUYLlUCTBhqB-12">
          <mxGeometry relative="1" as="geometry" />
        </mxCell>
        <mxCell id="mwFPS20yaUYLlUCTBhqB-20" value="Add 3 Points" style="rounded=0;whiteSpace=wrap;html=1;" vertex="1" parent="1">
          <mxGeometry x="620" y="150" width="120" height="60" as="geometry" />
        </mxCell>
        <mxCell id="mwFPS20yaUYLlUCTBhqB-25" value="To the house" style="text;html=1;align=center;verticalAlign=middle;resizable=0;points=[];autosize=1;strokeColor=none;fillColor=none;" vertex="1" parent="1">
          <mxGeometry x="170" width="90" height="30" as="geometry" />
        </mxCell>
        <mxCell id="mwFPS20yaUYLlUCTBhqB-28" value="NO GOOD" style="text;html=1;align=center;verticalAlign=middle;resizable=0;points=[];autosize=1;strokeColor=none;fillColor=none;" vertex="1" parent="1">
          <mxGeometry x="680" y="370" width="80" height="30" as="geometry" />
        </mxCell>
        <mxCell id="mwFPS20yaUYLlUCTBhqB-30" value="No" style="text;html=1;align=center;verticalAlign=middle;resizable=0;points=[];autosize=1;strokeColor=none;fillColor=none;" vertex="1" parent="1">
          <mxGeometry x="310" y="368" width="40" height="30" as="geometry" />
        </mxCell>
        <mxCell id="mwFPS20yaUYLlUCTBhqB-35" value="TD" style="text;html=1;align=center;verticalAlign=middle;resizable=0;points=[];autosize=1;strokeColor=none;fillColor=none;" vertex="1" parent="1">
          <mxGeometry x="385" y="165" width="40" height="30" as="geometry" />
        </mxCell>
        <mxCell id="mwFPS20yaUYLlUCTBhqB-38" style="edgeStyle=orthogonalEdgeStyle;rounded=0;orthogonalLoop=1;jettySize=auto;html=1;exitX=0.5;exitY=0;exitDx=0;exitDy=0;" edge="1" parent="1" source="mwFPS20yaUYLlUCTBhqB-36">
          <mxGeometry relative="1" as="geometry">
            <mxPoint x="500" y="70" as="targetPoint" />
          </mxGeometry>
        </mxCell>
        <mxCell id="mwFPS20yaUYLlUCTBhqB-36" value="Add 7 Points" style="rounded=0;whiteSpace=wrap;html=1;" vertex="1" parent="1">
          <mxGeometry x="440" y="160" width="120" height="60" as="geometry" />
        </mxCell>
      </root>
    </mxGraphModel>
  </diagram>
</mxfile>
